HIERARCHY
ROOT Hips
{
    OFFSET 0.0 0.0 0.0
    CHANNELS 6 Xposition Yposition Zposition Zrotation Xrotation Yrotation
    JOINT Spine
    {
        OFFSET 0.0 5.0 0.0
        CHANNELS 3 Zrotation Xrotation Yrotation
        JOINT Chest
        {
            OFFSET 0.0 5.0 0.0
            CHANNELS 3 Zrotation Xrotation Yrotation
            JOINT Neck
            {
                OFFSET 0.0 8.0 0.0
                CHANNELS 3 Zrotation Xrotation Yrotation
                JOINT Head
                {
                    OFFSET 0.0 5.0 0.0
                    CHANNELS 3 Zrotation Xrotation Yrotation
                    End Site
                    {
                        OFFSET 0.0 3.0 0.0
                    }
                }
            }
            JOINT LeftShoulder
            {
                OFFSET -5.0 0.0 0.0
                CHANNELS 3 Zrotation Xrotation Yrotation
                JOINT LeftArm
                {
                    OFFSET 0.0 -10.0 0.0
                    CHANNELS 3 Zrotation Xrotation Yrotation
                    JOINT LeftForeArm
                    {
                        OFFSET 0.0 -10.0 0.0
                        CHANNELS 3 Zrotation Xrotation Yrotation
                        End Site
                        {
                            OFFSET 0.0 -3.0 0.0
                        }
                    }
                }
            }
        }
    }
}

MOTION
Frames: 25
Frame Time: 0.033333
960.000000 445.000000 103.613527 0.000000 0.000000 0.000000 0.000000 0.000000 0.000000 23.025492 12.707652 0.000000 180.000000 -2.661421 0.000000 21.801409 2.299249 -0.000000 158.198591 -4.011890 30.000000 15.945396 -4.315662 0.000000 18.000000 0.507604 0.000000
1691.525230 140.756605 122.161013 0.000000 0.000000 0.000000 0.000000 0.000000 0.000000 -163.376529 8.333856 4.973798 16.623471 -5.054849 4.973798 -171.853121 -3.365868 3.759997 99.744051 -10.260106 29.763441 -171.126653 -3.701919 -3.759997 0.673538 0.387871 0.313953
1636.048050 128.802021 108.090956 0.000000 0.000000 0.000000 0.000000 0.000000 0.000000 157.904128 33.216298 9.635073 -22.095872 -11.626990 9.635073 -171.936471 -4.061061 7.460697 -143.675701 -3.976654 29.057495 -173.500805 -4.344410 -7.460697 0.570999 0.378122 0.626666
1578.156967 80.474526 118.659133 0.000000 0.000000 0.000000 0.000000 0.000000 0.000000 -139.519796 -10.264010 13.690942 40.480204 1.671290 13.690942 -174.507724 -3.652141 11.043737 119.111399 9.253816 27.893295 -173.607258 -4.296989 -11.043737 0.461920 0.445363 0.936907
960.418757 444.998421 121.622735 0.000000 0.000000 0.000000 0.000000 0.000000 0.000000 25.077893 -13.327555 16.886559 180.000000 -3.762159 16.886559 23.861935 10.716591 14.452610 156.138065 -4.765301 26.289200 17.903699 2.586029 -14.452610 18.000000 0.880286 1.243449
960.523360 444.997533 139.811241 0.000000 0.000000 0.000000 0.000000 0.000000 0.000000 25.638906 -13.344848 19.021130 180.000000 -5.117539 19.021130 24.425035 0.704839 17.633558 155.574965 0.141234 24.270510 18.452907 -0.400974 -17.633558 18.000000 0.011529 1.545085
960.627905 444.996447 135.126467 0.000000 0.000000 0.000000 0.000000 0.000000 0.000000 26.219073 11.582453 19.960535 180.000000 -0.278855 19.960535 25.006291 3.022616 20.536413 154.993709 2.504420 21.869059 19.024920 8.733456 -20.536413 18.000000 -0.785996 1.840623
1126.242828 420.359820 143.924400 0.000000 0.000000 0.000000 0.000000 0.000000 0.000000 31.410514 0.198940 19.645745 -148.589486 -0.632221 19.645745 32.280463 4.034103 23.115397 -131.603972 -1.064360 19.122720 45.585331 1.626537 -23.115397 -13.449727 -0.016321 2.128896
1257.895088 650.549197 149.023922 0.000000 0.000000 0.000000 0.000000 0.000000 0.000000 25.073180 -0.627125 18.096541 -154.926820 0.133934 18.096541 46.260945 1.537924 25.329838 -154.651428 -5.549982 16.074804 27.339487 5.497561 -25.329838 -13.619892 -0.550629 2.408768
960.941083 444.992008 161.338173 0.000000 0.000000 0.000000 0.000000 0.000000 0.000000 28.072001 -37.265152 15.410265 180.000000 12.980749 15.410265 26.849221 2.393821 27.144812 153.150779 -8.735849 12.773379 20.864045 14.857898 -27.144812 18.000000 -0.644707 2.679134
1163.815842 547.748709 142.812447 0.000000 0.000000 0.000000 0.000000 0.000000 0.000000 117.162728 6.264738 11.755705 -62.837272 -2.675619 11.755705 102.363764 0.768329 28.531695 -47.376450 -0.119873 9.270510 104.768601 -0.553405 -28.531695 -6.003489 -0.077550 2.938926
961.149372 444.988063 157.912201 0.000000 0.000000 0.000000 0.000000 0.000000 0.000000 29.395983 19.846117 7.362491 180.000000 -3.872643 7.362491 28.146217 2.853179 29.468618 151.853783 -1.418285 5.621439 22.170006 5.168604 -29.468618 18.000000 -0.314482 3.187120
1136.717377 590.104480 156.576939 0.000000 0.000000 0.000000 0.000000 0.000000 0.000000 115.752126 -2.632710 2.506665 -64.247874 -7.057162 2.506665 73.638146 5.473112 29.940802 -21.842452 2.882142 1.883716 75.369282 -4.041032 -29.940802 -6.767207 -0.388042 3.422736
1163.079758 634.077559 155.876164 0.000000 0.000000 0.000000 0.000000 0.000000 0.000000 132.174340 0.607901 -2.506665 -47.825660 -3.712054 -2.506665 94.255711 5.872302 29.940802 -149.364979 -7.125219 -1.883716 30.021641 5.850328 -29.940802 -5.096180 0.719869 3.644843
961.460830 444.980668 147.231407 0.000000 0.000000 0.000000 0.000000 0.000000 0.000000 31.497152 -2.007110 -7.362491 180.000000 -2.310472 -7.362491 30.152455 -11.863010 29.468618 149.847545 -6.579098 -5.621439 24.175589 -6.650291 -29.468618 18.000000 1.767311 3.852566
1097.449951 565.089898 147.860013 0.000000 0.000000 0.000000 0.000000 0.000000 0.000000 -119.219568 5.564953 -11.755705 60.780432 3.536271 -11.755705 -150.180642 -7.406804 28.531695 48.804955 -3.145482 -9.270510 -149.874178 -5.766194 -28.531695 2.713854 0.496894 4.045085
1114.140244 528.302071 174.252271 0.000000 0.000000 0.000000 0.000000 0.000000 0.000000 -142.671523 -2.247561 -15.410265 37.328477 -1.047788 -15.410265 -177.395681 0.921084 27.144812 34.687329 3.790876 -12.773379 161.894167 -1.006633 -27.144812 -0.910956 -0.040508 4.221640
1116.433640 479.728639 128.408154 0.000000 0.000000 0.000000 0.000000 0.000000 0.000000 -102.267481 -6.392539 -18.096541 77.732519 3.860973 -18.096541 -163.695626 0.669969 25.329838 38.575767 -0.650889 -16.074804 -176.001122 1.356496 -25.329838 0.706594 -0.117705 4.381533
1135.931282 466.493965 175.059774 0.000000 0.000000 0.000000 0.000000 0.000000 0.000000 -112.868406 -12.460618 -19.645745 67.131594 -7.648653 -19.645745 -159.517862 0.163079 23.115397 36.204678 1.527691 -19.122720 -154.426613 -6.328389 -23.115397 2.428729 0.498328 4.524135
1141.618767 467.420679 164.728687 0.000000 0.000000 0.000000 0.000000 0.000000 0.000000 -123.086385 -2.946010 -19.960535 56.913615 -1.010763 -19.960535 -154.885724 5.301517 20.536413 36.481623 1.906466 -21.869059 -153.965441 -5.999396 -20.536413 2.446728 0.539470 4.648882
1150.647926 469.370956 140.999559 0.000000 0.000000 0.000000 0.000000 0.000000 0.000000 -43.953779 0.427496 -19.021130 136.046221 7.435336 -19.021130 -154.327268 -7.595529 17.633558 60.745168 -7.618224 -24.270510 -153.350642 -6.465116 -17.633558 2.386216 0.653516 4.755283
1151.529922 496.420240 144.072525 0.000000 0.000000 0.000000 0.000000 0.000000 0.000000 -116.362129 8.723647 -16.886559 63.637871 0.763959 -16.886559 -149.081043 -4.926013 14.452610 35.941860 -2.638728 -26.289200 -156.847177 -0.203465 -14.452610 2.056513 0.048811 4.842916
1148.402367 515.713574 145.564381 0.000000 0.000000 0.000000 0.000000 0.000000 0.000000 -118.252650 0.078968 -13.690942 61.747350 -14.795634 -13.690942 -138.082896 3.718585 11.043737 -156.312677 -7.458065 -27.893295 21.649626 10.285589 -11.043737 2.962417 0.011751 4.911436
1175.363617 533.368646 121.925589 0.000000 0.000000 0.000000 0.000000 0.000000 0.000000 -95.476638 -0.599607 -9.635073 84.523362 12.599441 -9.635073 -113.907461 0.864156 7.460697 -155.995907 -6.956073 -29.057495 12.512064 9.429046 -7.460697 -16.748794 -0.942905 4.960574
1199.533310 485.991104 112.725521 0.000000 0.000000 0.000000 0.000000 0.000000 0.000000 -100.003195 -10.864270 -4.973798 79.996805 14.365708 -4.973798 -86.083188 -2.231123 3.759997 38.843754 5.336707 -29.763441 -106.539452 0.460204 -3.759997 6.197806 -0.355315 4.990134
